<svg width="30" height="30" viewBox="0 0 30 30" fill="none" xmlns="http://www.w3.org/2000/svg">
    <path
        d="M19.352 0L18.7305 0.621504C17.2707 2.08131 17.0556 4.32064 18.0832 6.01137L11.7958 10.2596L11.6871 10.1509C9.28828 7.75213 5.38512 7.75207 2.98635 10.1509L2.36484 10.7723L10.1747 18.5822L0 28.757L1.24295 30L11.4177 19.8252L19.2277 27.6352L19.8492 27.0137C22.248 24.6148 22.2479 20.7117 19.8492 18.3129L19.7404 18.2042L23.9887 11.9168C25.6794 12.9445 27.9188 12.7294 29.3786 11.2695L30 10.6481L19.352 0ZM19.1653 25.0868L4.9132 10.8347C6.61852 9.70693 8.94346 9.8932 10.4441 11.3938L18.6062 19.5559C20.1068 21.0565 20.2931 23.3815 19.1653 25.0868ZM18.4744 16.9382L13.0618 11.5256L19.2432 7.349L22.651 10.7568L18.4744 16.9382ZM24.4067 10.0266L19.9735 5.59336C19.1633 4.78312 18.9916 3.5724 19.4585 2.59242L27.4076 10.5415C26.4277 11.0085 25.2169 10.8368 24.4067 10.0266Z"
        fill="black" />
</svg>