<svg xmlns="http://www.w3.org/2000/svg"  viewBox="0 0 80 80" width="16px" height="16px"><path fill="#dbb065" d="M2.5 71.5L2.5 8.5 23.793 8.5 29.793 14.5 73.5 14.5 73.5 71.5z"/><path fill="#967a44" d="M23.586,9l5.707,5.707L29.586,15H30h43v56H3V9H23.586 M24,8H2v64h72V14H30L24,8L24,8z"/><g><path fill="#f5ce85" d="M2.573 71.5L8.437 28.5 30.151 28.5 36.151 24.5 79.434 24.5 73.559 71.5z"/><path fill="#967a44" d="M78.867,25l-5.75,46H3.146l5.727-42H30h0.303l0.252-0.168L36.303,25H78.867 M80,24H36l-6,4H8L2,72 h72L80,24L80,24z"/></g></svg>