<svg width="30" height="30" viewBox="0 0 30 30" fill="none" xmlns="http://www.w3.org/2000/svg">
    <path
        d="M19.352 0L18.7305 0.621504C17.2707 2.08131 17.0556 4.32064 18.0832 6.01137L11.7958 10.2596L11.6871 10.1509C9.28828 7.75213 5.38512 7.75207 2.98635 10.1509L2.36484 10.7723L10.1747 18.5822L0 28.757L1.24295 30L11.4177 19.8252L19.2277 27.6352L19.8492 27.0137C22.248 24.6148 22.2479 20.7117 19.8492 18.3129L19.7404 18.2042L23.9887 11.9168C25.6794 12.9445 27.9188 12.7294 29.3786 11.2695L30 10.6481L19.352 0ZM19.1653 25.0868L4.9132 10.8347C6.61852 9.70693 8.94346 9.8932 10.4441 11.3938L18.6062 19.5559C20.1068 21.0565 20.2931 23.3815 19.1653 25.0868ZM18.4744 16.9382L13.0618 11.5256L19.2432 7.349L22.651 10.7568L18.4744 16.9382ZM24.4067 10.0266L19.9735 5.59336C19.1633 4.78312 18.9916 3.5724 19.4585 2.59242L27.4076 10.5415C26.4277 11.0085 25.2169 10.8368 24.4067 10.0266Z"
        fill="black" />
    <path
        d="M12.0589 17.9356C6.34372 12.2197 4.97109 10.8268 5.02037 10.7933C5.18771 10.6795 5.66462 10.458 5.9476 10.3627C6.39916 10.2105 6.80895 10.1459 7.33219 10.1442C8.3044 10.1412 9.19207 10.4374 9.96771 11.0237C10.4883 11.4171 18.8711 19.8338 19.1112 20.204C19.8579 21.3557 20.0551 22.6216 19.6866 23.8979C19.595 24.2151 19.3517 24.7607 19.2145 24.9567C19.1624 25.0309 18.6774 24.5549 12.0589 17.9356Z"
        fill="#FF0000" fill-opacity="0.319838" />
    <path
        d="M15.7969 14.205C14.3279 12.7359 13.1394 11.5205 13.1557 11.5041C13.1721 11.4877 14.5489 10.5517 16.2152 9.42401L19.2449 7.37372L20.9289 9.05419C21.8551 9.97845 22.6058 10.753 22.597 10.7755C22.5758 10.8298 18.573 16.7612 18.5139 16.8258C18.4784 16.8646 17.8515 16.2598 15.7969 14.205Z"
        fill="#FF0000" fill-opacity="0.319838" />
    <path
        d="M25.9592 10.7518C25.637 10.7152 25.3774 10.6303 25 10.4378C24.7395 10.305 24.494 10.0717 22.2234 7.79911C19.5878 5.16135 19.5683 5.13917 19.3576 4.54428C19.2088 4.12437 19.1999 3.40849 19.3379 2.96938C19.3891 2.80663 19.4442 2.67346 19.4604 2.67346C19.4767 2.67346 21.2596 4.44318 23.4225 6.60618L27.3551 10.5389L27.1979 10.6007C26.839 10.7418 26.372 10.7987 25.9592 10.7518Z"
        fill="#AA0000" fill-opacity="0.319838" />
    <path
        d="M18.4156 24.2288C17.3969 23.2554 5.25962 11.089 5.14967 10.931L5.05902 10.8007L5.23359 10.7005C5.52206 10.5351 6.12108 10.3159 6.48441 10.243C7.014 10.1366 8.01722 10.176 8.51019 10.3226C8.98303 10.4632 9.39398 10.6578 9.7877 10.9275C10.3208 11.2927 18.8443 19.8247 19.133 20.2821C19.4512 20.7862 19.7049 21.4542 19.7975 22.032C19.8728 22.5021 19.8273 23.2922 19.6979 23.763C19.5824 24.1827 19.255 24.9184 19.1837 24.9184C19.1582 24.9184 18.8126 24.6081 18.4156 24.2288Z"
        fill="#AA0000" fill-opacity="0.319838" />
    <path
        d="M16.2161 14.5816C14.9929 13.3638 13.8111 12.1731 13.5899 11.9356L13.1876 11.5038L13.9101 11.0126C14.3075 10.7424 15.6698 9.81953 16.9374 8.96169L19.2421 7.40198L20.9106 9.076L22.579 10.75L22.5107 10.8648C22.4513 10.9647 19.7477 14.9773 18.8375 16.3166C18.6583 16.5802 18.4956 16.7959 18.4759 16.7959C18.4562 16.7959 17.4393 15.7995 16.2161 14.5816Z"
        fill="#AA0000" fill-opacity="0.319838" />
    <path
        d="M16.0384 14.3658C14.7118 13.0422 13.5361 11.8558 13.4257 11.7294L13.2249 11.4996L15.9217 9.67339C17.4049 8.66898 18.7554 7.7537 18.9228 7.63944L19.2273 7.4317L20.8789 9.08301C21.7874 9.99123 22.5306 10.7485 22.5306 10.7658C22.5306 10.8316 18.6934 16.5216 18.5477 16.6719L18.4502 16.7724L16.0384 14.3658Z"
        fill="#AA0000" fill-opacity="0.319838" />
    <path
        d="M15.8357 14.1203L13.2449 11.5262L13.3469 11.4484C13.439 11.3782 14.0635 10.9539 16.5004 9.3056C16.9323 9.01347 17.7118 8.48541 18.2326 8.13213C18.7534 7.77885 19.1943 7.48981 19.2124 7.48981C19.2305 7.48981 19.9779 8.22267 20.8734 9.11838C22.001 10.2462 22.4943 10.766 22.4778 10.8091C22.4286 10.9372 18.8705 16.2188 18.6026 16.5612C18.5368 16.6454 18.4702 16.7143 18.4547 16.7143C18.4392 16.7143 17.2606 15.547 15.8357 14.1203Z"
        fill="#AA0000" fill-opacity="0.319838" />
    <path
        d="M15.8578 14.1027C13.625 11.8698 13.2952 11.5245 13.3477 11.4754C13.3809 11.4443 13.7204 11.2076 14.102 10.9493C14.4837 10.6911 15.7764 9.81629 16.9749 9.00525C18.1733 8.19422 19.1753 7.53064 19.2014 7.53064C19.2628 7.53064 22.449 10.7278 22.449 10.7894C22.449 10.8588 19.223 15.6763 18.707 16.3776C18.5872 16.5403 18.4755 16.6735 18.4587 16.6735C18.442 16.6735 17.2716 15.5167 15.8578 14.1027Z"
        fill="#AA0000" fill-opacity="0.319838" />
    <path
        d="M18.6033 24.3724C17.6552 23.4888 5.09426 10.8804 5.11128 10.8293C5.13602 10.7551 5.62291 10.5243 6.049 10.3848C6.52928 10.2276 7.06813 10.1771 7.73049 10.2274C8.45493 10.2825 9.05287 10.4787 9.62315 10.8487C9.99958 11.0929 11.6219 12.669 15.2454 16.3108C18.9277 20.0115 19.0759 20.1712 19.3461 20.7278C19.6669 21.3885 19.7634 21.7698 19.7861 22.4648C19.8075 23.1194 19.7613 23.5101 19.6083 23.9713C19.4859 24.3401 19.2337 24.8775 19.1831 24.8775C19.1623 24.8775 18.9014 24.6502 18.6033 24.3724Z"
        fill="#AA0000" fill-opacity="0.319838" />
    <path
        d="M18.7029 24.4326C18.3214 24.0802 8.64003 14.3937 6.06291 11.786C4.99037 10.7007 5.03561 10.826 5.62432 10.571C6.3177 10.2706 7.06008 10.1681 7.86408 10.2617C8.84032 10.3754 9.39487 10.6393 10.2135 11.3797C10.8396 11.9461 16.6136 17.6929 17.9091 19.0391C18.9549 20.1258 19.1395 20.3507 19.3567 20.8027C19.6565 21.4266 19.7245 21.7216 19.7458 22.4887C19.7672 23.2644 19.7283 23.5779 19.5505 24.0612C19.411 24.4407 19.2186 24.8368 19.1739 24.8368C19.1555 24.8368 18.9435 24.6549 18.7029 24.4326Z"
        fill="#AA0000" fill-opacity="0.319838" />
    <path
        d="M12.225 17.9334C8.44742 14.1537 5.32327 11.0083 5.28244 10.9437C5.20952 10.8282 5.2098 10.8249 5.2982 10.7533C5.43205 10.6449 6.01113 10.4331 6.42859 10.3398C6.74202 10.2697 6.89479 10.2606 7.46941 10.2774C8.76668 10.3153 9.29393 10.5562 10.4564 11.6417C11.412 12.5341 18.4968 19.6523 18.8341 20.059C19.0522 20.3219 19.2169 20.575 19.352 20.8549C19.6668 21.5072 19.6939 21.6529 19.6939 22.6938V23.5918L19.5593 23.9796C19.4086 24.4137 19.2322 24.7609 19.1487 24.7878C19.1161 24.7983 16.2649 21.9756 12.225 17.9334Z"
        fill="#AA0000" fill-opacity="0.319838" />
    <path
        d="M12.5046 18.1776C8.87833 14.5555 5.76256 11.4295 5.58063 11.2311C5.31175 10.9379 5.25768 10.8577 5.29167 10.8025C5.34316 10.719 5.88946 10.4952 6.31577 10.3829C6.57473 10.3147 6.75198 10.3 7.2857 10.3023C8.49311 10.3075 9.01235 10.4732 9.8458 11.119C10.0386 11.2683 12.0331 13.2317 14.4898 15.6904C19.0499 20.2543 19.055 20.2597 19.3931 20.9812C19.6328 21.4928 19.6719 21.7391 19.6727 22.7433L19.6735 23.6089L19.5354 23.9952C19.3812 24.4266 19.231 24.72 19.1509 24.7461C19.1212 24.7557 16.1902 21.8591 12.5046 18.1776Z"
        fill="#AA0000" fill-opacity="0.319838" />
    <path
        d="M25.8257 10.7155C25.5046 10.657 25.0748 10.4728 24.8179 10.2837C24.5362 10.0763 21.549 7.12962 20.4815 6.00609C19.3949 4.86244 19.2898 4.66444 19.2872 3.75511C19.286 3.34598 19.3035 3.16609 19.3636 2.9694C19.4064 2.82909 19.4524 2.71429 19.4657 2.71429C19.479 2.71429 21.2515 4.47592 23.4045 6.62902L27.3191 10.5437L27.0373 10.6308C26.7202 10.7287 26.126 10.7703 25.8257 10.7155Z"
        fill="#AA0000" fill-opacity="0.319838" />
    <path
        d="M25.5918 10.6372C25.0945 10.4761 24.888 10.3315 24.1357 9.61788C23.1692 8.70106 20.3418 5.84967 19.9458 5.39252C19.7643 5.18296 19.569 4.90296 19.4831 4.72912C19.3416 4.44278 19.3335 4.40387 19.3148 3.9191C19.2957 3.42245 19.3431 2.99662 19.4371 2.82088C19.4732 2.75339 19.9629 3.22833 23.3708 6.63614C25.8522 9.11744 27.2452 10.5386 27.2133 10.5564C27.1858 10.5718 27.0217 10.6136 26.8487 10.6493C26.4308 10.7356 25.8793 10.7303 25.5918 10.6372Z"
        fill="#AA0000" fill-opacity="0.319838" />
    <path
        d="M25.4775 10.5737C24.9142 10.3645 24.5559 10.0431 21.8977 7.3628C20.0419 5.49157 19.7071 5.11912 19.4824 4.67589C19.373 4.46023 19.3668 4.41771 19.3556 3.81635C19.3475 3.38101 19.3606 3.12717 19.3975 3.00243L19.4512 2.82117L19.7766 3.10979C20.2576 3.53636 27.1989 10.5086 27.1707 10.5368C27.1023 10.6052 26.6199 10.672 26.2041 10.6707C25.8148 10.6695 25.6908 10.6529 25.4775 10.5737Z"
        fill="#AA0000" fill-opacity="0.319838" />
    <path
        d="M25.8571 10.6301C25.4866 10.5924 25.1991 10.4608 24.7959 10.1444C24.3828 9.82026 20.2274 5.66221 19.8792 5.22451C19.7363 5.04492 19.5658 4.78369 19.5002 4.644L19.3811 4.39002L19.3946 3.65752C19.4021 3.25464 19.4212 2.91202 19.4371 2.89613C19.4531 2.88023 19.5541 2.9415 19.6616 3.03228C19.7692 3.12306 21.5004 4.84377 23.5089 6.85607C26.2893 9.64177 27.1467 10.5235 27.102 10.551C27.0484 10.5842 26.8105 10.6135 26.3265 10.6466C26.2255 10.6535 26.0143 10.6461 25.8571 10.6301Z"
        fill="#AA0000" fill-opacity="0.319838" />
    <path
        d="M16.8525 15.0692C15.9857 14.2117 14.8391 13.0619 14.3047 12.514L13.3329 11.5178L13.4522 11.4216C13.5826 11.3165 17.5171 8.6499 18.5233 7.98476C18.8671 7.75742 19.1709 7.57141 19.1983 7.57141C19.2634 7.57141 22.3837 10.692 22.401 10.7744C22.4152 10.8417 21.5852 12.1201 20.0682 14.3673C18.803 16.2417 18.5216 16.6362 18.4543 16.6304C18.4402 16.6292 17.7194 15.9267 16.8525 15.0692Z"
        fill="#AA0000" fill-opacity="0.319838" />
</svg>